<svg xmlns="http://www.w3.org/2000/svg" width="16" height="16" viewBox="0 0 16 16"><defs><clipPath id="pp6ca"><path fill="#fff" d="M0 16V0h16v16zm8-1A7 7 0 1 0 8 1a7 7 0 0 0 0 14z"/></clipPath></defs><g><g clip-path="url(#clip-F8524E20-0155-474A-AEEB-2058EDC7C0E6)"><path fill="#5cd14c" d="M11.682 4.126c-.345-.214-.83-.148-1.082.144L6.685 8.826l-1.303-1.4c-.266-.285-.753-.333-1.088-.109-.335.224-.392.638-.128.922L6.734 11l5.117-5.956c.252-.294.177-.704-.17-.918"/></g><g><path fill="none" stroke="#5cd14c" stroke-miterlimit="50" stroke-width="2" d="M8 15A7 7 0 1 0 8 1a7 7 0 0 0 0 14z" clip-path="url(&quot;#pp6ca&quot;)"/></g></g></svg>