<svg xmlns="http://www.w3.org/2000/svg" width="16" height="16" viewBox="0 0 16 16"><defs><clipPath id="druca"><path fill="#fff" d="M0 16V0h16v16zm8-1A7 7 0 1 0 8 1a7 7 0 0 0 0 14z"/></clipPath></defs><g><g><path fill="none" stroke="#c23131" stroke-miterlimit="50" stroke-width="2" d="M8 15A7 7 0 1 0 8 1a7 7 0 0 0 0 14z" clip-path="url(&quot;#druca&quot;)"/></g><g clip-path="url(#clip-538A5BC1-7893-4540-AF5B-16530024E2F5)"><path fill="#c23131" d="M7.993 3.04c-.565 0-.993.344-.993.9v5.098c0 .556.428.9.993.9.551 0 .993-.358.993-.9V3.94c0-.543-.442-.9-.993-.9"/></g><g><path fill="#c23131" d="M8 11c-.551 0-1 .449-1 1a1.001 1.001 0 1 0 1-1"/></g></g></svg>